:SAMPLES-PER-SECOND 30
:FULLY-SPECIFIED
:DEGREES
488
root  9.88062 29.994 -7.25237 28.7333 -16.1756 -4.63617
RightUpLeg  -56.1064 -26.3829 -7.06872
RightLeg  38.9876 -0.576976 -0.429379
RightFoot  -6.32787 0.00796438 0.521687
RightToes  -50.5452 -0.307714 -0.366625
Spine  14.9651 2.37781 -0.802528
Spine1  26.9606 4.60534 -1.19401
HEad  -3.96026 -18.8267 33.1675
LeftShoulder1  0 -2.42657e-020 -4.95415e-022
LeftArm  -39.6226 -9.5502 -69.3641
LeftForeArm  87.5251 -79.7383 -79.787
LeftHand  0.251249 -4.02848 -7.51757
RightShoulder  0 2.42657e-020 1.07489e-018
RightArm  -50.8075 10.863 78.0799
RightForeArm  28.029 43.1839 9.53739
RightHand  -1.42793 21.4723 -7.15272
LeftUpLeg  -31.1203 -5.2273 17.3751
LeftLeg  49.3713 -14.7042 -14.5817
LeftFoot  -23.0325 1.61942 7.93599
LeftToes  -32.038 2.37847e-007 4.89147e-008
489
root  7.10493 29.24 -5.91706 27.4772 -14.6997 -4.22256
RightUpLeg  -59.6637 -28.1149 -7.3223
RightLeg  34.7951 -2.96577 -1.80251
RightFoot  -4.0647 0.0147119 0.792265
RightToes  -52.4615 -0.324874 -0.37418
Spine  15.3409 2.17011 -0.633032
Spine1  27.0794 4.3017 -1.68735
HEad  -2.33704 -18.7891 33.8704
LeftShoulder1  0 -2.42657e-020 -4.95415e-022
LeftArm  -36.9328 -19.2314 -69.5288
LeftForeArm  62.1035 -76.5614 -48.0861
LeftHand  0.250559 -5.36148 -5.72481
RightShoulder  0 2.42657e-020 1.07489e-018
RightArm  -49.1251 16.3454 76.8732
RightForeArm  27.6063 41.2856 8.91517
RightHand  -1.27192 21.8201 -6.22348
LeftUpLeg  -25.9736 -6.3254 20.7744
LeftLeg  47.986 -14.1802 -13.4532
LeftFoot  -22.4742 1.40951 7.08571
LeftToes  -41.2642 2.37847e-007 4.89147e-008
490
root  4.45361 28.1743 -4.47652 25.9973 -14.0851 -2.91245
RightUpLeg  -65.419 -30.4399 -5.69978
RightLeg  35.5003 -7.17676 -4.44528
RightFoot  -2.89041 0.0167153 1.04034
RightToes  -49.8907 -0.301913 -0.363914
Spine  15.8272 1.82934 -0.679405
Spine1  27.3228 3.67756 -2.83109
HEad  -0.520672 -18.3211 33.6093
LeftShoulder1  0 -2.42657e-020 -4.95415e-022
LeftArm  -33.1527 -27.8228 -71.5464
LeftForeArm  48.4583 -68.5566 -26.8373
LeftHand  0.112973 -6.79409 -2.27531
RightShoulder  0 2.42657e-020 1.07489e-018
RightArm  -47.303 23.0033 76.4413
RightForeArm  26.0131 37.7113 7.83926
RightHand  -1.07801 21.9533 -5.18525
LeftUpLeg  -21.2169 -11.4148 22.2784
LeftLeg  47.7359 -10.4877 -9.99469
LeftFoot  -21.0919 0.855558 4.59321
LeftToes  -48.8817 2.37847e-007 4.89147e-008
491
root  1.78245 26.7653 -2.93545 24.4471 -14.0436 -2.38284
RightUpLeg  -72.3274 -31.2959 -1.06827
RightLeg  41.8768 -11.35 -8.81998
RightFoot  -6.05599 0.0937575 2.15009
RightToes  -40.2752 -0.220685 -0.316672
Spine  16.7249 1.36412 -0.285205
Spine1  28.0403 1.95248 -2.44237
HEad  1.66118 -18.2143 32.3064
LeftShoulder1  0 -2.42657e-020 -4.95415e-022
LeftArm  -28.801 -34.6619 -75.0752
LeftForeArm  46.821 -57.0319 -15.8097
LeftHand  -0.256364 -8.84245 2.94711
RightShoulder  0 2.42657e-020 1.07489e-018
RightArm  -45.9962 30.6837 76.7817
RightForeArm  25.2766 32.9319 6.55675
RightHand  -0.582694 22.5781 -2.54908
LeftUpLeg  -16.935 -13.6118 23.2923
LeftLeg  50.8175 -6.06366 -6.50086
LeftFoot  -17.9835 0.283722 1.79286
LeftToes  -58.0171 2.37847e-007 4.89147e-008
492
root  -0.894097 25.068 -1.39088 22.1446 -15.8538 -2.66983
RightUpLeg  -74.818 -23.7174 -7.0898
RightLeg  55.2358 0.25101 0.251116
RightFoot  5.32569 -0.0113205 0.620872
RightToes  -48.8405 -0.29267 -0.359426
Spine  18.8311 1.05609 0.283743
Spine1  30.2818 -0.112608 -0.300844
HEad  2.73892 -18.5806 30.7001
LeftShoulder1  0 -2.42657e-020 -4.95415e-022
LeftArm  -23.8469 -41.2493 -79.1148
LeftForeArm  51.1766 -43.9554 -9.76799
LeftHand  -0.891217 -10.8331 9.01408
RightShoulder  0 2.42657e-020 1.07489e-018
RightArm  -46.0072 39.5077 78.1582
RightForeArm  27.3356 27.9282 5.35858
RightHand  -0.428367 22.3555 -1.79807
LeftUpLeg  -12.3646 -12.5726 24.3461
LeftLeg  57.1474 -3.28726 -4.43512
LeftFoot  -11.3802 -0.0715462 -0.718054
LeftToes  -66.5922 2.37847e-007 4.89147e-008
493
root  -3.12149 23.5675 0.195371 20.0345 -16.8138 -4.24594
RightUpLeg  -76.5704 -17.6264 -9.77667
RightLeg  69.6433 0.477702 0.905549
RightFoot  7.2195 -0.0209844 0.710114
RightToes  -54.0806 -0.339561 -0.380112
Spine  22.1483 0.438401 2.69649
Spine1  34.0935 -2.31219 3.20414
HEad  2.674 -16.8023 26.904
LeftShoulder1  0 -2.42657e-020 -4.95415e-022
LeftArm  -19.3585 -48.6624 -85.032
LeftForeArm  55.5889 -30.7088 -5.96855
LeftHand  -0.707641 -11.0478 6.94168
RightShoulder  0 2.42657e-020 1.07489e-018
RightArm  -48.337 49.3947 78.5131
RightForeArm  30.0787 21.9716 4.07245
RightHand  -0.298709 23.2457 -1.08246
LeftUpLeg  -11.574 -16.4659 24.4864
LeftLeg  70.1363 -1.05295 -2.43076
LeftFoot  -1.23174 -0.0324789 -3.02076
LeftToes  -50.2955 2.37847e-007 4.89147e-008
